<?xml version="1.0" encoding="UTF-8"?>
<svg id="Layer_2" data-name="Layer 2" xmlns="http://www.w3.org/2000/svg" viewBox="0 0 931.54 980.62">
  <defs>
    <style>
      .cls-1 {
        fill: #fff;
      }

      .cls-2 {
        fill: #ff3e3e;
      }

      .cls-3 {
        fill: #cecece;
      }

      .cls-4 {
        fill: #2789ff;
      }
    </style>
  </defs>
  <path d="m489.86,980.62c.56.28,21.68-62.28,21.68-62.28l24.36,23.19s197.83-120.91,214.78-167.97c16.95-47.06,19.79-167.89,19.79-167.89,0,0,40.82,42.54,98.88,31.35,58.06-11.2,96.28-235.1,17.91-286.6-38.15-25.07-127,36.59-127,36.59-2.15-4.48,23.65-67.99,0-121.32,0,0-152.32-151.49-158.78-162.68,0,0-17.2,38.06-34.41,42.54,0,0-19.35-13.43-38.71-67.17C509.02,24.63,463.86,0,463.86,0c0,0,15.05,42.54-30.1,67.17-45.16,24.63-68.81,82.85-68.81,82.85-17.2-4.48-43.01-55.98-43.01-55.98-8.6,42.54-150.66,176.71-150.66,176.71-23.65,53.33,2.15,116.84,0,121.32,0,0-88.85-61.66-127-36.59-78.37,51.5-40.15,275.41,17.91,286.6,58.06,11.2,98.88-31.35,98.88-31.35,0,0,2.84,120.84,19.79,167.89,16.43,45.6,309,201.98,309,201.98Z"/>
  <g>
    <path class="cls-1" d="m596.2,344.16c-57.28,0-134.63,35.33-134.63,35.33,0,0-77.34-35.33-134.63-35.33s-162.68,74.27-80.2,205.83c40.81,65.09,82.74,71.48,114.7,61.32-37.07,27.47-79.78,63.42-82.62,85.09-9.17,70.02,120.32,157.66,182.74,175.38,62.43-17.72,191.91-105.35,182.74-175.38-2.84-21.67-45.55-57.62-82.62-85.09,31.95,10.15,73.88,3.77,114.7-61.32,82.49-131.56-22.91-205.83-80.2-205.83Z"/>
    <g>
      <path d="m398.34,646.08l38.77,16.05c3.6,1.49,7.32-1.87,6.2-5.6-5.33-17.79-19.99-52.4-46.83-17.58-1.87,2.42-.96,5.96,1.87,7.13Z"/>
      <path d="m524.81,646.08l-38.77,16.05c-3.6,1.49-7.32-1.87-6.2-5.6,5.33-17.79,19.99-52.4,46.83-17.58,1.87,2.42.96,5.96-1.87,7.13Z"/>
    </g>
    <path d="m379.78,733.37c39.41.37,125.17-3.66,167.8-42.78,4.03-3.7,10.52-.84,10.39,4.63-1.04,44.07-18.39,159.1-181.66,49.45-5.08-3.41-2.65-11.36,3.47-11.3Z"/>
    <g>
      <path class="cls-1" d="m49.94,420.06c.54,46.24-3.39,150.74,80.07,179.95,4.36,1.53,3.02,8.77-1.87,8.77-21.98,0-65.11,3.86-91.39-51.98-19.52-41.48-5.83-106.19,4.68-138.06,1.55-4.68,8.46-3.61,8.52,1.32Z"/>
      <path class="cls-1" d="m881.6,420.06c-.54,46.24,3.39,150.74-80.07,179.95-4.36,1.53-3.02,8.77,1.87,8.77,21.98,0,65.11,3.86,91.39-51.98,19.52-41.48,5.83-106.19-4.68-138.06-1.55-4.68-8.46-3.61-8.52,1.32Z"/>
    </g>
    <path class="cls-1" d="m420.73,252.22l40.38-63.3c1.73-2.71,5.67-2.75,7.46-.09l42.19,62.86c2.61,3.89-1.77,8.65-5.86,6.38l-36.56-20.31c-1.35-.75-2.98-.75-4.33,0l-37.35,20.75c-4.04,2.25-8.41-2.39-5.92-6.29Z"/>
    <g>
      <path class="cls-3" d="m619.68,416.55c-58.43,6.33-141.46,28.49-141.46,28.49h-24.9s-83.03-22.16-141.46-28.49c-49.42-5.36-126.6,11.33-149.23,16.6-3.77.88-6.44,4.24-6.44,8.12v34.69c0,.9.15,1.8.43,2.65,4.1,12.21,36.29,107.36,50.68,131.05,15.38,25.33,89.18,31.66,159.91,15.83,70.73-15.83,73.8-104.47,79.95-117.13.06-.13.12-.25.19-.38,7.51-15.13,29.31-15.13,36.83,0,.06.13.12.25.19.38,6.15,12.66,9.23,101.3,79.95,117.13,70.73,15.83,144.53,9.5,159.91-15.83,14.38-23.69,46.57-118.84,50.68-131.05.29-.86.43-1.75.43-2.65v-34.69c0-3.88-2.66-7.24-6.44-8.12-22.63-5.27-99.81-21.96-149.23-16.6Z"/>
      <path class="cls-2" d="m418.29,461.29s-108.93-35.08-230.94-9.15c0,0,6.1,117.43,51.09,143.36,28.52,16.44,78.2,12.03,110.74,6.61,27.7-4.62,50.63-24.07,59.59-50.69,6.91-20.55,11.8-49.68,9.52-90.13Z"/>
      <path class="cls-4" d="m512.37,461.29s108.93-35.08,230.94-9.15c0,0-6.1,117.43-51.09,143.36-28.52,16.44-78.2,12.03-110.74,6.61-27.7-4.62-50.63-24.07-59.59-50.69-6.91-20.55-11.8-49.68-9.52-90.13Z"/>
    </g>
  </g>
</svg>