{
	"asset":{
		"generator":"Khronos glTF Blender I/O v3.6.27",
		"version":"2.0"
	},
	"scene":0,
	"scenes":[
		{
			"name":"Scene",
			"nodes":[
				0,
				1,
				2
			]
		}
	],
	"nodes":[
		{
			"mesh":0,
			"name":"Cube012",
			"rotation":[
				0.70710688829422,
				0,
				0,
				0.7071066498756409
			],
			"scale":[
				2.747875213623047,
				2.7478749752044678,
				2.7478749752044678
			]
		},
		{
			"mesh":1,
			"name":"Cube012_1",
			"rotation":[
				0.70710688829422,
				0,
				0,
				0.7071066498756409
			],
			"scale":[
				2.747875213623047,
				2.7478749752044678,
				2.7478749752044678
			]
		},
		{
			"mesh":2,
			"name":"Cube012_2",
			"rotation":[
				0.70710688829422,
				0,
				0,
				0.7071066498756409
			],
			"scale":[
				2.747875213623047,
				2.7478749752044678,
				2.7478749752044678
			]
		}
	],
	"materials":[
		{
			"alphaMode":"BLEND",
			"name":"Brown.018",
			"pbrMetallicRoughness":{
				"baseColorFactor":[
					0.5764706134796143,
					0.23137255012989044,
					0.11372549086809158,
					1
				],
				"metallicFactor":0,
				"roughnessFactor":0.5
			}
		},
		{
			"alphaMode":"BLEND",
			"name":"White.040",
			"pbrMetallicRoughness":{
				"baseColorFactor":[
					0.7960784435272217,
					0.7960784435272217,
					0.7960784435272217,
					1
				],
				"metallicFactor":0,
				"roughnessFactor":0.5
			}
		},
		{
			"alphaMode":"BLEND",
			"name":"Metal.083",
			"pbrMetallicRoughness":{
				"baseColorFactor":[
					0.9058823585510254,
					0.9686274528503418,
					1,
					1
				],
				"metallicFactor":0.20000000298023224,
				"roughnessFactor":0.30000001192092896
			}
		}
	],
	"meshes":[
		{
			"name":"Mesh_0",
			"primitives":[
				{
					"attributes":{
						"POSITION":0,
						"NORMAL":1,
						"TEXCOORD_0":2
					},
					"indices":3,
					"material":0
				}
			]
		},
		{
			"name":"Mesh_1",
			"primitives":[
				{
					"attributes":{
						"POSITION":4,
						"NORMAL":5,
						"TEXCOORD_0":6
					},
					"indices":7,
					"material":1
				}
			]
		},
		{
			"name":"Mesh_2",
			"primitives":[
				{
					"attributes":{
						"POSITION":8,
						"NORMAL":9,
						"TEXCOORD_0":10
					},
					"indices":11,
					"material":2
				}
			]
		}
	],
	"accessors":[
		{
			"bufferView":0,
			"componentType":5126,
			"count":190,
			"max":[
				0.3516010642051697,
				0.21081508696079254,
				0.03155121952295303
			],
			"min":[
				-0.3516010046005249,
				-0.20588450133800507,
				-0.08834008872509003
			],
			"type":"VEC3"
		},
		{
			"bufferView":1,
			"componentType":5126,
			"count":190,
			"type":"VEC3"
		},
		{
			"bufferView":2,
			"componentType":5126,
			"count":190,
			"type":"VEC2"
		},
		{
			"bufferView":3,
			"componentType":5123,
			"count":354,
			"type":"SCALAR"
		},
		{
			"bufferView":4,
			"componentType":5126,
			"count":108,
			"max":[
				0.33501559495925903,
				0.1953129917383194,
				-0.009642422199249268
			],
			"min":[
				-0.33501553535461426,
				-0.1899467259645462,
				-0.1196231096982956
			],
			"type":"VEC3"
		},
		{
			"bufferView":5,
			"componentType":5126,
			"count":108,
			"type":"VEC3"
		},
		{
			"bufferView":6,
			"componentType":5126,
			"count":108,
			"type":"VEC2"
		},
		{
			"bufferView":7,
			"componentType":5123,
			"count":288,
			"type":"SCALAR"
		},
		{
			"bufferView":8,
			"componentType":5126,
			"count":240,
			"max":[
				0.0861000195145607,
				0.1403171569108963,
				0.037311799824237823
			],
			"min":[
				-0.08605005592107773,
				-0.13585148751735687,
				-0.0676511749625206
			],
			"type":"VEC3"
		},
		{
			"bufferView":9,
			"componentType":5126,
			"count":240,
			"type":"VEC3"
		},
		{
			"bufferView":10,
			"componentType":5126,
			"count":240,
			"type":"VEC2"
		},
		{
			"bufferView":11,
			"componentType":5123,
			"count":456,
			"type":"SCALAR"
		}
	],
	"bufferViews":[
		{
			"buffer":0,
			"byteLength":2280,
			"byteOffset":0,
			"target":34962
		},
		{
			"buffer":0,
			"byteLength":2280,
			"byteOffset":2280,
			"target":34962
		},
		{
			"buffer":0,
			"byteLength":1520,
			"byteOffset":4560,
			"target":34962
		},
		{
			"buffer":0,
			"byteLength":708,
			"byteOffset":6080,
			"target":34963
		},
		{
			"buffer":0,
			"byteLength":1296,
			"byteOffset":6788,
			"target":34962
		},
		{
			"buffer":0,
			"byteLength":1296,
			"byteOffset":8084,
			"target":34962
		},
		{
			"buffer":0,
			"byteLength":864,
			"byteOffset":9380,
			"target":34962
		},
		{
			"buffer":0,
			"byteLength":576,
			"byteOffset":10244,
			"target":34963
		},
		{
			"buffer":0,
			"byteLength":2880,
			"byteOffset":10820,
			"target":34962
		},
		{
			"buffer":0,
			"byteLength":2880,
			"byteOffset":13700,
			"target":34962
		},
		{
			"buffer":0,
			"byteLength":1920,
			"byteOffset":16580,
			"target":34962
		},
		{
			"buffer":0,
			"byteLength":912,
			"byteOffset":18500,
			"target":34963
		}
	],
	"buffers":[
		{
			"byteLength":19412,
			"uri":"data:application/octet-stream;base64,"
		}
	]
}
