{
	"asset":{
		"generator":"Khronos glTF Blender I/O v3.6.27",
		"version":"2.0"
	},
	"extensionsUsed":[
		"KHR_materials_clearcoat"
	],
	"scene":0,
	"scenes":[
		{
			"name":"Scene",
			"nodes":[
				0
			]
		}
	],
	"nodes":[
		{
			"mesh":0,
			"name":"Plane.011",
			"translation":[
				-0.5822232961654663,
				0,
				0
			]
		}
	],
	"materials":[
		{
			"doubleSided":true,
			"extensions":{
				"KHR_materials_clearcoat":{
					"clearcoatFactor":0.48905110359191895,
					"clearcoatRoughnessFactor":0.029999999329447746
				}
			},
			"name":"Material.033",
			"pbrMetallicRoughness":{
				"baseColorFactor":[
					0.22657111287117004,
					0.22657111287117004,
					0.22657111287117004,
					1
				],
				"metallicFactor":0,
				"roughnessFactor":0
			}
		},
		{
			"doubleSided":true,
			"name":"Material.032",
			"pbrMetallicRoughness":{
				"baseColorTexture":{
					"index":0
				},
				"metallicFactor":0,
				"roughnessFactor":0
			}
		}
	],
	"meshes":[
		{
			"name":"Plane.030",
			"primitives":[
				{
					"attributes":{
						"POSITION":0,
						"NORMAL":1,
						"TEXCOORD_0":2
					},
					"indices":3,
					"material":0
				},
				{
					"attributes":{
						"POSITION":4,
						"NORMAL":5,
						"TEXCOORD_0":6
					},
					"indices":7,
					"material":1
				}
			]
		}
	],
	"textures":[
		{
			"sampler":0,
			"source":0
		}
	],
	"images":[
		{
			"bufferView":8,
			"mimeType":"image/jpeg",
			"name":"pp,550x550"
		}
	],
	"accessors":[
		{
			"bufferView":0,
			"componentType":5126,
			"count":5970,
			"max":[
				1.3348511457443237,
				0.04941251873970032,
				0.3203611671924591
			],
			"min":[
				-0.16933654248714447,
				-0.12400628626346588,
				-0.31967177987098694
			],
			"type":"VEC3"
		},
		{
			"bufferView":1,
			"componentType":5126,
			"count":5970,
			"type":"VEC3"
		},
		{
			"bufferView":2,
			"componentType":5126,
			"count":5970,
			"type":"VEC2"
		},
		{
			"bufferView":3,
			"componentType":5123,
			"count":9570,
			"type":"SCALAR"
		},
		{
			"bufferView":4,
			"componentType":5126,
			"count":66,
			"max":[
				1.294575810432434,
				0.03412967547774315,
				0.28231266140937805
			],
			"min":[
				-0.12906111776828766,
				0.03412967547774315,
				-0.24277082085609436
			],
			"type":"VEC3"
		},
		{
			"bufferView":5,
			"componentType":5126,
			"count":66,
			"type":"VEC3"
		},
		{
			"bufferView":6,
			"componentType":5126,
			"count":66,
			"type":"VEC2"
		},
		{
			"bufferView":7,
			"componentType":5123,
			"count":156,
			"type":"SCALAR"
		}
	],
	"bufferViews":[
		{
			"buffer":0,
			"byteLength":71640,
			"byteOffset":0,
			"target":34962
		},
		{
			"buffer":0,
			"byteLength":71640,
			"byteOffset":71640,
			"target":34962
		},
		{
			"buffer":0,
			"byteLength":47760,
			"byteOffset":143280,
			"target":34962
		},
		{
			"buffer":0,
			"byteLength":19140,
			"byteOffset":191040,
			"target":34963
		},
		{
			"buffer":0,
			"byteLength":792,
			"byteOffset":210180,
			"target":34962
		},
		{
			"buffer":0,
			"byteLength":792,
			"byteOffset":210972,
			"target":34962
		},
		{
			"buffer":0,
			"byteLength":528,
			"byteOffset":211764,
			"target":34962
		},
		{
			"buffer":0,
			"byteLength":312,
			"byteOffset":212292,
			"target":34963
		},
		{
			"buffer":0,
			"byteLength":26875,
			"byteOffset":212604
		}
	],
	"samplers":[
		{
			"magFilter":9729,
			"minFilter":9987
		}
	],
	"buffers":[
		{
			"byteLength":239480,
			"uri":"data:application/octet-stream;base64,"
		}
	]
}
