<?xml version="1.0" encoding="utf-8"?>
<!-- Generator: Adobe Illustrator 27.6.1, SVG Export Plug-In . SVG Version: 6.00 Build 0)  -->
<svg version="1.1" xmlns="http://www.w3.org/2000/svg" xmlns:xlink="http://www.w3.org/1999/xlink" x="0px" y="0px"
	 viewBox="0 0 1000 1000" style="enable-background:new 0 0 1000 1000;" xml:space="preserve">
<style type="text/css">
	.st0{fill:#151515;}
	.st1{fill:#F4F1EF;}
	.st2{fill:#BCBCBC;}
	.st3{fill:#FF3E3E;}
	.st4{fill:#2789FF;}
	.st5{display:none;}
	.st6{display:inline;}
	.st7{fill:#FFFFFF;}
	.st8{fill:#CECECE;}
	.st9{font-family:'Arial-Black';}
	.st10{font-size:160.11px;}
</style>
<g id="Layer_1">
</g>
<g id="Layer_3">
</g>
<g id="Layer_2">
	<g>
		<path class="st0" d="M524.1,990.3c0.6,0.3,21.7-62.3,21.7-62.3l24.4,23.2c0,0,197.8-120.9,214.8-168
			c17-47.1,19.8-167.9,19.8-167.9s40.8,42.5,98.9,31.3c58.1-11.2,96.3-235.1,17.9-286.6c-38.2-25.1-127,36.6-127,36.6
			c-2.2-4.5,23.7-68,0-121.3c0,0-152.3-151.5-158.8-162.7c0,0-17.2,38.1-34.4,42.5c0,0-19.4-13.4-38.7-67.2
			c-19.4-53.7-64.5-78.4-64.5-78.4s15.1,42.5-30.1,67.2c-45.2,24.6-68.8,82.8-68.8,82.8c-17.2-4.5-43-56-43-56
			c-8.6,42.5-150.7,176.7-150.7,176.7c-23.7,53.3,2.2,116.8,0,121.3c0,0-88.9-61.7-127-36.6C0.1,416.7,38.4,640.6,96.4,651.8
			s98.9-31.3,98.9-31.3s2.8,120.8,19.8,167.9C231.5,833.9,524.1,990.3,524.1,990.3z"/>
		<g>
			<path class="st1" d="M630.4,353.9c-57.3,0-134.6,35.3-134.6,35.3s-77.3-35.3-134.6-35.3S198.5,428.1,281,559.7
				c40.8,65.1,82.7,71.5,114.7,61.3c-37.1,27.5-79.8,63.4-82.6,85.1c-9.2,70,120.3,157.7,182.7,175.4
				c62.4-17.7,191.9-105.4,182.7-175.4c-2.8-21.7-45.5-57.6-82.6-85.1c32,10.2,73.9,3.8,114.7-61.3
				C793.1,428.1,687.7,353.9,630.4,353.9z"/>
			<g>
				<path class="st0" d="M432.6,655.8l38.8,16.1c3.6,1.5,7.3-1.9,6.2-5.6c-5.3-17.8-20-52.4-46.8-17.6
					C428.8,651.1,429.7,654.6,432.6,655.8z"/>
				<path class="st0" d="M559,655.8l-38.8,16.1c-3.6,1.5-7.3-1.9-6.2-5.6c5.3-17.8,20-52.4,46.8-17.6
					C562.8,651.1,561.9,654.6,559,655.8z"/>
			</g>
			<path class="st0" d="M414,743.1c39.4,0.4,125.2-3.7,167.8-42.8c4-3.7,10.5-0.8,10.4,4.6c-1,44.1-18.4,159.1-181.7,49.5
				C405.5,750.9,407.9,743,414,743.1z"/>
			<g>
				<path class="st1" d="M84.2,429.8c0.5,46.2-3.4,150.7,80.1,179.9c4.4,1.5,3,8.8-1.9,8.8c-22,0-65.1,3.9-91.4-52
					c-19.5-41.5-5.8-106.2,4.7-138.1C77.2,423.7,84.1,424.8,84.2,429.8z"/>
				<path class="st1" d="M915.8,429.8c-0.5,46.2,3.4,150.7-80.1,179.9c-4.4,1.5-3,8.8,1.9,8.8c22,0,65.1,3.9,91.4-52
					c19.5-41.5,5.8-106.2-4.7-138.1C922.8,423.7,915.9,424.8,915.8,429.8z"/>
			</g>
			<path class="st1" d="M455,261.9l40.4-63.3c1.7-2.7,5.7-2.8,7.5-0.1l42.2,62.9c2.6,3.9-1.8,8.7-5.9,6.4l-36.6-20.3
				c-1.3-0.7-3-0.7-4.3,0l-37.3,20.7C456.8,270.5,452.5,265.8,455,261.9z"/>
			<g>
				<path class="st2" d="M653.9,426.2c-58.4,6.3-141.5,28.5-141.5,28.5H500h-12.4c0,0-83-22.2-141.5-28.5
					c-49.4-5.4-126.6,11.3-149.2,16.6c-3.8,0.9-6.4,4.2-6.4,8.1v34.7c0,0.9,0.1,1.8,0.4,2.7c4.1,12.2,36.3,107.4,50.7,131
					c15.4,25.3,89.2,31.7,159.9,15.8c70.7-15.8,73.8-104.5,80-117.1c0.1-0.1,0.1-0.3,0.2-0.4c7.5-15.1,29.3-15.1,36.8,0
					c0.1,0.1,0.1,0.3,0.2,0.4c6.2,12.7,9.2,101.3,80,117.1c70.7,15.8,144.5,9.5,159.9-15.8c14.4-23.7,46.6-118.8,50.7-131
					c0.3-0.9,0.4-1.7,0.4-2.7V451c0-3.9-2.7-7.2-6.4-8.1C780.5,437.6,703.3,420.9,653.9,426.2z"/>
				<path class="st3" d="M452.5,471c0,0-108.9-35.1-230.9-9.2c0,0,6.1,117.4,51.1,143.4c28.5,16.4,78.2,12,110.7,6.6
					c27.7-4.6,50.6-24.1,59.6-50.7C449.9,540.6,454.8,511.4,452.5,471z"/>
				<path class="st4" d="M546.6,471c0,0,108.9-35.1,230.9-9.2c0,0-6.1,117.4-51.1,143.4c-28.5,16.4-78.2,12-110.7,6.6
					c-27.7-4.6-50.6-24.1-59.6-50.7C549.2,540.6,544.3,511.4,546.6,471z"/>
			</g>
		</g>
	</g>
</g>
<g id="Layer_4" class="st5">
	<g class="st6">
		<path d="M525.6,645.9c0.3,0.2,7.8-60.9,7.8-60.9l9.1,36.7c0,0,120-73.4,130.3-101.9c10.3-28.5,12-101.9,12-101.9s24.8,25.8,60,19
			s58.4-142.6,10.9-173.9c-23.1-15.2-77,22.2-77,22.2c-1.3-2.7,14.3-41.2,0-73.6c0,0-92.4-91.9-96.3-98.7c0,0-10.4,23.1-20.9,25.8
			c0,0-11.7-8.2-23.5-40.8c-11.7-32.6-39.1-47.5-39.1-47.5s9.1,25.8-18.3,40.8c-27.4,14.9-41.7,50.3-41.7,50.3
			c-10.4-2.7-26.1-34-26.1-34c-5.2,25.8-91.4,107.2-91.4,107.2c-14.3,32.4,1.3,70.9,0,73.6c0,0-53.9-37.4-77-22.2
			c-47.5,31.2-24.4,167.1,10.9,173.9c35.2,6.8,60-19,60-19s1.7,73.3,12,101.9C337.1,550.5,525.6,645.9,525.6,645.9z"/>
		<path class="st7" d="M581.7,247.2c-34.8,0-81.7,21.4-81.7,21.4s-46.9-21.4-81.7-21.4s-98.7,45.1-48.7,124.9
			c24.8,39.5,50.2,43.4,69.6,37.2c-22.5,16.7-48.4,38.5-50.1,51.6c-5.6,42.5,73,95.6,110.9,106.4c37.9-10.7,116.4-63.9,110.9-106.4
			c-1.7-13.1-27.6-35-50.1-51.6c19.4,6.2,44.8,2.3,69.6-37.2C680.4,292.2,616.4,247.2,581.7,247.2z"/>
		<g>
			<path d="M461.6,425.3l23.5,9.7c2.2,0.9,4.4-1.1,3.8-3.4c-3.2-10.8-12.1-31.8-28.4-10.7C459.4,422.5,459.9,424.6,461.6,425.3z"/>
			<path d="M538.4,425.3l-23.5,9.7c-2.2,0.9-4.4-1.1-3.8-3.4c3.2-10.8,12.1-31.8,28.4-10.7C540.6,422.5,540.1,424.6,538.4,425.3z"/>
		</g>
		<path d="M453.4,484.4c23.9,0.2,75.9-2.2,101.8-26c2.4-2.2,6.4-0.5,6.3,2.8c-0.6,26.7-11.2,96.5-110.2,30
			C448.2,489.2,449.7,484.3,453.4,484.4z"/>
		<g>
			<path class="st7" d="M247.7,299.3c0.3,28.1-2.1,91.4,48.6,109.2c2.6,0.9,1.8,5.3-1.1,5.3c-13.3,0-39.5,2.3-55.4-31.5
				c-11.8-25.2-3.5-64.4,2.8-83.8C243.5,295.6,247.7,296.3,247.7,299.3z"/>
			<path class="st7" d="M752.3,299.3c-0.3,28.1,2.1,91.4-48.6,109.2c-2.6,0.9-1.8,5.3,1.1,5.3c13.3,0,39.5,2.3,55.4-31.5
				c11.8-25.2,3.5-64.4-2.8-83.8C756.5,295.6,752.3,296.3,752.3,299.3z"/>
		</g>
		<path class="st7" d="M472.7,174.9l24.5-38.4c1-1.6,3.4-1.7,4.5-0.1l25.6,38.1c1.6,2.4-1.1,5.2-3.6,3.9l-22.2-12.3
			c-0.8-0.5-1.8-0.5-2.6,0l-22.7,12.6C473.8,180.1,471.2,177.3,472.7,174.9z"/>
		<g>
			<path class="st8" d="M593.4,291.6c-35.4,3.8-85.8,17.3-85.8,17.3H500h-7.6c0,0-50.4-13.4-85.8-17.3c-30-3.2-76.8,6.9-90.5,10.1
				c-2.3,0.5-3.9,2.6-3.9,4.9v21c0,0.5,0.1,1.1,0.3,1.6c2.5,7.4,22,65.1,30.7,79.5c9.3,15.4,54.1,19.2,97,9.6
				c42.9-9.6,44.8-63.4,48.5-71.1c0-0.1,0.1-0.2,0.1-0.2c4.6-9.2,17.8-9.2,22.3,0c0,0.1,0.1,0.2,0.1,0.2c3.7,7.7,5.6,61.5,48.5,71.1
				c42.9,9.6,87.7,5.8,97-9.6c8.7-14.4,28.3-72.1,30.7-79.5c0.2-0.5,0.3-1.1,0.3-1.6v-21c0-2.4-1.6-4.4-3.9-4.9
				C670.2,298.5,623.3,288.4,593.4,291.6z"/>
			<path class="st3" d="M471.2,318.8c0,0-66.1-21.3-140.1-5.6c0,0,3.7,71.2,31,87c17.3,10,47.4,7.3,67.2,4
				c16.8-2.8,30.7-14.6,36.2-30.7C469.6,361,472.6,343.3,471.2,318.8z"/>
			<path class="st4" d="M528.3,318.8c0,0,66.1-21.3,140.1-5.6c0,0-3.7,71.2-31,87c-17.3,10-47.4,7.3-67.2,4
				c-16.8-2.8-30.7-14.6-36.2-30.7C529.8,361,526.9,343.3,528.3,318.8z"/>
		</g>
	</g>
	<text transform="matrix(1 0 0 1 61.4303 799.5059)" class="st6"><tspan x="0" y="0" class="st9 st10">CONTENT</tspan><tspan x="40.5" y="140" class="st9 st10">MONKEY</tspan></text>
</g>
</svg>
